<svg version="1.1" id="Layer_1" xmlns="http://www.w3.org/2000/svg" xmlns:xlink="http://www.w3.org/1999/xlink" x="0px" y="0px"
	 width="100%" viewBox="0 0 400 304" enable-background="new 0 0 400 304" xml:space="preserve">
<path fill="#000000" opacity="1.000000" stroke="none" 
	d="
M204.392548,113.128220 
	C198.970520,121.066719 191.783249,123.868851 183.036194,121.720161 
	C168.551849,118.162109 159.865738,123.233803 155.654297,137.708054 
	C152.862656,147.302612 144.838211,152.506210 134.699738,151.296448 
	C126.643143,150.335098 119.949127,142.866348 119.282051,134.094376 
	C118.629524,125.513580 124.970871,117.287231 133.877747,115.148674 
	C136.867157,114.430916 139.761703,114.763794 142.738998,115.488861 
	C157.955399,119.194572 166.115814,114.432884 170.548492,99.421074 
	C174.454971,86.191299 189.163376,81.380348 200.045135,89.773071 
	C206.704239,94.908997 208.408585,103.581131 204.392548,113.128220 
z"/>
<path fill="#000000" opacity="1.000000" stroke="none" 
	d="
M231.950714,199.311066 
	C229.555252,198.976089 227.552719,198.807220 225.652924,198.272949 
	C214.164642,195.042160 204.477951,200.138290 201.228821,211.623123 
	C199.016846,219.441818 194.968491,225.135727 186.627792,226.914810 
	C180.071960,228.313156 172.909256,225.245270 168.861053,219.324371 
	C164.774567,213.347473 164.849518,205.625519 169.052139,199.640350 
	C173.159058,193.791504 180.376877,190.704666 186.891479,192.437714 
	C191.632797,193.699036 196.360321,194.693939 201.135681,193.303650 
	C208.991684,191.016479 212.831070,185.165421 214.773300,177.545456 
	C216.819275,169.518509 224.272720,163.827835 231.874039,164.058212 
	C240.073715,164.306702 246.887817,169.815659 248.857071,177.788376 
	C251.453186,188.298965 243.985672,198.058548 231.950714,199.311066 
z"/>
<path fill="#000000" opacity="1.000000" stroke="none" 
	d="
M250.372864,124.115547 
	C253.783539,138.007202 242.553467,149.734497 229.434799,146.487579 
	C214.614609,142.819534 206.872253,147.222214 202.362793,161.882019 
	C199.562881,170.984268 190.656403,176.491196 181.948471,174.504349 
	C172.786057,172.413773 166.536713,163.753983 167.862045,154.984573 
	C169.250778,145.795700 177.356476,139.106613 186.515594,139.772614 
	C188.641739,139.927200 190.733871,140.637970 192.826126,141.155594 
	C203.095627,143.696167 212.927902,138.105957 215.786743,127.989532 
	C216.974609,123.786087 218.299240,119.703339 221.661484,116.643799 
	C231.163254,107.997490 244.784653,111.363091 250.372864,124.115547 
z"/>
<path fill="#000000" opacity="1.000000" stroke="none" 
	d="
M153.884323,181.706177 
	C154.898071,191.741562 150.704956,198.978073 142.535767,201.904007 
	C134.826462,204.665222 126.539215,201.850357 122.050453,194.945892 
	C116.490547,186.393845 119.001183,175.586502 127.767044,170.338043 
	C136.366409,165.189270 147.385666,168.240280 152.134598,177.139435 
	C152.831100,178.444641 153.228775,179.909317 153.884323,181.706177 
z"/>
</svg>